<svg width="160" height="42" viewBox="0 0 190 52" fill="none" xmlns="http://www.w3.org/2000/svg">
<path d="M39.312 9.792H24.768V50.4H14.472V9.792H0V0H39.312V9.792Z" fill="#14151F"/>
<path fill-rule="evenodd" clip-rule="evenodd" d="M50.16 17C59.7 17 67.38 24.26 67.38 34.22C67.38 44.18 59.82 51.44 50.16 51.44C40.56 51.44 33 44.12 33 34.22C33 24.26 40.68 17 50.16 17ZM50.16 25.16C45.36 25.16 41.64 28.82 41.64 34.22C41.64 39.68 45.36 43.28 50.16 43.28C54.96 43.28 58.68 39.68 58.68 34.22C58.68 28.82 54.96 25.16 50.16 25.16Z" fill="#14151F"/>
<path d="M100.329 17.72H110.169V50.72H101.589V39.02L102.189 27.74L91.9294 42.5H91.6894L81.4294 27.74L81.9694 39.02V50.72H73.3894V17.72H83.2894L91.8094 29.48L100.329 17.72Z" fill="#14151F"/>
<path d="M148.602 17.72H138.762L125.202 39.08L125.622 29.42V17.72H117.042V50.72H126.942L140.562 29.24L140.022 39.02V50.72H148.602V17.72Z" fill="#14151F"/>
<path d="M188.539 50.72H177.559L164.059 36.32V50.72H155.479V17.72H164.059V31.46L176.599 17.72H187.519L172.459 33.44L188.539 50.72Z" fill="#14151F"/>
<path d="M147.858 0.169C147.858 1.352 148.755 2.093 149.899 2.093C151.03 2.093 151.94 1.352 151.94 0.169V0H151.342V0.143C151.342 0.988 150.77 1.521 149.899 1.521C149.028 1.521 148.456 0.988 148.456 0.143V0H147.858V0.169Z" fill="#14151F"/>
<path d="M153.032 3.536H152.122L147.416 9.919L147.455 7.423V3.536H146.766V10.686H147.676L152.382 4.303L152.343 6.799V10.686H153.032V3.536Z" fill="#14151F"/>
<path d="M62.216 1.586H56.951L55.911 7.891C55.612 9.685 55.274 10.179 54.507 10.179L54 10.166V10.803C54.13 10.816 54.481 10.829 54.611 10.829C55.677 10.829 56.223 10.101 56.587 7.917L57.536 2.249H61.527V10.686H62.216V1.586Z" fill="#14151F"/>
<path d="M70.766 3.536H69.856L65.15 9.919L65.189 7.423V3.536H64.5V10.686H65.41L70.116 4.303L70.077 6.799V10.686H70.766V3.536Z" fill="#14151F"/>
<path d="M78.1043 3.536V4.186H75.5043V10.686H74.8153V4.186H72.2023V3.536H78.1043Z" fill="#14151F"/>
<path fill-rule="evenodd" clip-rule="evenodd" d="M86.0259 7.332C86.0649 5.018 84.6869 3.393 82.4899 3.393C80.3969 3.393 78.8759 4.953 78.8759 7.137C78.8759 9.347 80.4229 10.829 82.5289 10.829C83.9589 10.829 85.2459 10.14 85.8309 8.749H85.1159C84.6349 9.685 83.6729 10.166 82.5419 10.166C80.8779 10.166 79.6559 9.1 79.5779 7.332H86.0259ZM79.5909 6.682C79.7729 5.148 80.9039 4.043 82.4899 4.043C84.0629 4.043 85.1289 5.148 85.2979 6.682H79.5909Z" fill="#14151F"/>
<path fill-rule="evenodd" clip-rule="evenodd" d="M91.4768 3.393C93.4658 3.393 94.8568 4.966 94.8568 7.111C94.8568 9.256 93.4658 10.829 91.4768 10.829C90.1248 10.829 89.0328 10.088 88.4738 8.97V13.936H87.7848V3.536H88.4738V5.252C89.0328 4.134 90.1248 3.393 91.4768 3.393ZM91.3728 10.166C93.0238 10.166 94.1678 8.879 94.1678 7.111C94.1678 5.343 93.0368 4.056 91.3728 4.056C89.7218 4.056 88.4608 5.343 88.4608 7.111C88.4608 8.892 89.7218 10.166 91.3728 10.166Z" fill="#14151F"/>
<path fill-rule="evenodd" clip-rule="evenodd" d="M103.379 3.536H102.69V5.252C102.131 4.134 101.052 3.393 99.6866 3.393C97.7106 3.393 96.3066 4.966 96.3066 7.111C96.3066 9.256 97.6976 10.829 99.6996 10.829C101.052 10.829 102.131 10.088 102.69 8.983V10.686H103.379V3.536ZM102.703 7.111C102.703 8.892 101.442 10.166 99.7906 10.166C98.1396 10.166 96.9956 8.879 96.9956 7.111C96.9956 5.343 98.1396 4.056 99.7906 4.056C101.442 4.056 102.703 5.343 102.703 7.111Z" fill="#14151F"/>
<path d="M110.706 3.536V4.186H108.106V10.686H107.417V4.186H104.804V3.536H110.706Z" fill="#14151F"/>
<path d="M118.139 3.536H117.398L114.772 9.1L112.172 3.536H111.431L114.408 9.867L112.484 13.936H113.238L118.139 3.536Z" fill="#14151F"/>
<path fill-rule="evenodd" clip-rule="evenodd" d="M123.329 3.393C125.318 3.393 126.709 4.966 126.709 7.111C126.709 9.256 125.318 10.829 123.329 10.829C121.977 10.829 120.885 10.088 120.326 8.97V13.936H119.637V3.536H120.326V5.252C120.885 4.134 121.977 3.393 123.329 3.393ZM123.225 10.166C124.876 10.166 126.02 8.879 126.02 7.111C126.02 5.343 124.889 4.056 123.225 4.056C121.574 4.056 120.313 5.343 120.313 7.111C120.313 8.892 121.574 10.166 123.225 10.166Z" fill="#14151F"/>
<path d="M134.867 3.536H134.178V6.695H129.186V3.536H128.497V10.686H129.186V7.345H134.178V10.686H134.867V3.536Z" fill="#14151F"/>
<path fill-rule="evenodd" clip-rule="evenodd" d="M140.253 6.045C142.008 6.045 142.723 6.916 142.723 8.32C142.723 9.724 141.956 10.686 140.201 10.686H137.003V3.536H137.692V6.045H140.253ZM140.201 10.023C141.644 10.023 142.034 9.256 142.034 8.32C142.034 7.384 141.67 6.669 140.227 6.669H137.692V10.023H140.201Z" fill="#14151F"/>
<path d="M143.945 3.536H144.634V10.686H143.945V3.536Z" fill="#14151F"/>
<path fill-rule="evenodd" clip-rule="evenodd" d="M162.603 3.601C164.527 3.601 165.97 5.005 165.97 7.111C165.97 9.334 164.384 10.829 162.343 10.829C160.315 10.829 158.755 9.386 158.729 6.877C158.729 1.521 160.848 0.533 165.164 0.533V1.196C161.368 1.196 159.717 1.937 159.457 5.564C160.016 4.277 161.277 3.601 162.603 3.601ZM162.317 10.205C163.955 10.205 165.281 9.009 165.281 7.137C165.281 5.382 164.085 4.212 162.473 4.212C160.887 4.212 159.418 5.343 159.418 7.137C159.418 9.009 160.666 10.205 162.317 10.205Z" fill="#14151F"/>
<path d="M173.601 3.536H168.947L168.245 7.891C167.959 9.685 167.595 10.179 166.815 10.179C166.762 10.179 166.701 10.1755 166.642 10.1722C166.587 10.169 166.534 10.166 166.49 10.166V10.803C166.62 10.816 166.802 10.829 166.932 10.829C167.985 10.829 168.583 10.088 168.934 7.917L169.532 4.186H172.912V10.686H173.601V3.536Z" fill="#14151F"/>
<path fill-rule="evenodd" clip-rule="evenodd" d="M179.064 3.393C181.092 3.393 182.73 4.966 182.73 7.111C182.73 9.243 181.118 10.829 179.064 10.829C177.023 10.829 175.398 9.243 175.398 7.111C175.398 4.966 177.049 3.393 179.064 3.393ZM179.064 4.056C177.426 4.056 176.1 5.317 176.1 7.111C176.1 8.879 177.413 10.166 179.064 10.166C180.715 10.166 182.028 8.879 182.028 7.111C182.028 5.33 180.702 4.056 179.064 4.056Z" fill="#14151F"/>
<path d="M189.072 4.186V3.536H184.509V10.686H185.198V4.186H189.072Z" fill="#14151F"/>
</svg>
