<svg width="35" height="35" viewBox="0 0 35 35" fill="none" xmlns="http://www.w3.org/2000/svg">
<path d="M17.4975 6.72296C21.0091 6.72296 21.4249 6.73836 22.806 6.79997C24.0895 6.85644 24.7826 7.07207 25.2446 7.25176C25.8556 7.48792 26.2971 7.77543 26.754 8.23235C27.2161 8.69441 27.4984 9.13079 27.7346 9.74174C27.9143 10.2038 28.1299 10.902 28.1864 12.1804C28.248 13.5665 28.2634 13.9824 28.2634 17.4889C28.2634 21.0005 28.248 21.4164 28.1864 22.7974C28.1299 24.0809 27.9143 24.774 27.7346 25.2361C27.4984 25.847 27.2109 26.2885 26.754 26.7454C26.2919 27.2075 25.8556 27.4899 25.2446 27.726C24.7826 27.9057 24.0843 28.1213 22.806 28.1778C21.4198 28.2394 21.004 28.2548 17.4975 28.2548C13.9858 28.2548 13.57 28.2394 12.1889 28.1778C10.9054 28.1213 10.2124 27.9057 9.7503 27.726C9.13935 27.4899 8.69783 27.2024 8.24091 26.7454C7.77885 26.2834 7.49648 25.847 7.26032 25.2361C7.08063 24.774 6.865 24.0758 6.80853 22.7974C6.74692 21.4113 6.73152 20.9954 6.73152 17.4889C6.73152 13.9773 6.74692 13.5614 6.80853 12.1804C6.865 10.8969 7.08063 10.2038 7.26032 9.74174C7.49648 9.13079 7.78398 8.68927 8.24091 8.23235C8.70296 7.77029 9.13935 7.48792 9.7503 7.25176C10.2124 7.07207 10.9106 6.85644 12.1889 6.79997C13.57 6.73836 13.9858 6.72296 17.4975 6.72296ZM17.4975 4.3562C13.9293 4.3562 13.4827 4.3716 12.0811 4.43321C10.6847 4.49482 9.72463 4.72071 8.89292 5.04415C8.02528 5.383 7.29112 5.82965 6.5621 6.56381C5.82794 7.29283 5.38129 8.02699 5.04244 8.8895C4.719 9.72633 4.49311 10.6813 4.4315 12.0777C4.36989 13.4844 4.35449 13.9311 4.35449 17.4992C4.35449 21.0673 4.36989 21.5139 4.4315 22.9155C4.49311 24.3119 4.719 25.272 5.04244 26.1037C5.38129 26.9713 5.82794 27.7055 6.5621 28.4345C7.29112 29.1635 8.02528 29.6153 8.88779 29.949C9.72463 30.2725 10.6795 30.4984 12.076 30.56C13.4776 30.6216 13.9242 30.637 17.4923 30.637C21.0604 30.637 21.5071 30.6216 22.9087 30.56C24.3051 30.4984 25.2652 30.2725 26.0969 29.949C26.9594 29.6153 27.6935 29.1635 28.4225 28.4345C29.1516 27.7055 29.6034 26.9713 29.9371 26.1088C30.2605 25.272 30.4864 24.3171 30.548 22.9206C30.6096 21.5191 30.625 21.0724 30.625 17.5043C30.625 13.9362 30.6096 13.4895 30.548 12.088C30.4864 10.6915 30.2605 9.73147 29.9371 8.89976C29.6136 8.02699 29.167 7.29283 28.4328 6.56381C27.7038 5.83478 26.9696 5.383 26.1071 5.04929C25.2703 4.72585 24.3154 4.49995 22.9189 4.43834C21.5122 4.3716 21.0656 4.3562 17.4975 4.3562Z" fill="#2365FA"/>
<path fill-rule="evenodd" clip-rule="evenodd" d="M17.4975 6.72296C21.0091 6.72296 21.4249 6.73836 22.806 6.79997C24.0895 6.85644 24.7826 7.07207 25.2446 7.25176C25.8556 7.48792 26.2971 7.77543 26.754 8.23235C27.2161 8.69441 27.4984 9.13079 27.7346 9.74174C27.9143 10.2038 28.1299 10.902 28.1864 12.1804C28.248 13.5665 28.2634 13.9824 28.2634 17.4889C28.2634 21.0005 28.248 21.4164 28.1864 22.7974C28.1299 24.0809 27.9143 24.774 27.7346 25.2361C27.4984 25.847 27.2109 26.2885 26.754 26.7454C26.2919 27.2075 25.8556 27.4899 25.2446 27.726C24.7826 27.9057 24.0843 28.1213 22.806 28.1778C21.4198 28.2394 21.004 28.2548 17.4975 28.2548C13.9858 28.2548 13.57 28.2394 12.1889 28.1778C10.9054 28.1213 10.2124 27.9057 9.7503 27.726C9.13935 27.4899 8.69783 27.2024 8.24091 26.7454C7.77885 26.2834 7.49648 25.847 7.26032 25.2361C7.08063 24.774 6.865 24.0758 6.80853 22.7974C6.74692 21.4113 6.73152 20.9954 6.73152 17.4889C6.73152 13.9773 6.74692 13.5614 6.80853 12.1804C6.865 10.8969 7.08063 10.2038 7.26032 9.74174C7.49648 9.13079 7.78398 8.68927 8.24091 8.23235C8.70296 7.77029 9.13935 7.48792 9.7503 7.25176C10.2124 7.07207 10.9106 6.85644 12.1889 6.79997C13.57 6.73836 13.9858 6.72296 17.4975 6.72296ZM10.7463 17.4992C10.7463 13.7719 13.7702 10.748 17.4975 10.748C21.2247 10.748 24.2486 13.7719 24.2486 17.4992C24.2486 21.2264 21.2247 24.2503 17.4975 24.2503C13.7702 24.2503 10.7463 21.2264 10.7463 17.4992ZM24.5156 12.0571C25.3832 12.0571 26.0917 11.3538 26.0917 10.481C26.0917 9.61334 25.3832 8.90485 24.5156 8.90485C23.648 8.90485 22.9395 9.6082 22.9395 10.481C22.9395 11.3486 23.6428 12.0571 24.5156 12.0571Z" fill="#2365FA"/>
<path d="M17.4975 21.8784C15.0794 21.8784 13.1182 19.9173 13.1182 17.4992C13.1182 15.0811 15.0794 13.1199 17.4975 13.1199C19.9156 13.1199 21.8767 15.0811 21.8767 17.4992C21.8767 19.9173 19.9156 21.8784 17.4975 21.8784Z" fill="#FFF"/>
</svg>
