<svg width="35" height="35" viewBox="0 0 35 35" fill="none" xmlns="http://www.w3.org/2000/svg">
<path fill-rule="evenodd" clip-rule="evenodd" d="M32.0834 17.5C32.0834 25.5541 25.5542 32.0833 17.5001 32.0833C9.44593 32.0833 2.91675 25.5541 2.91675 17.5C2.91675 9.44581 9.44593 2.91663 17.5001 2.91663C25.5542 2.91663 32.0834 9.44581 32.0834 17.5ZM18.0227 13.6827C16.6042 14.2727 13.7693 15.4938 9.51801 17.346C8.82766 17.6205 8.46602 17.8891 8.4331 18.1517C8.37746 18.5955 8.93324 18.7703 9.69006 19.0083C9.79301 19.0406 9.89968 19.0742 10.009 19.1097C10.7536 19.3518 11.7553 19.6349 12.276 19.6462C12.7483 19.6564 13.2754 19.4617 13.8575 19.062C17.8296 16.3807 19.8801 15.0254 20.0088 14.9962C20.0996 14.9756 20.2255 14.9497 20.3107 15.0255C20.396 15.1013 20.3876 15.2448 20.3786 15.2833C20.3235 15.518 18.1419 17.5463 17.0129 18.5959C16.6609 18.9231 16.4113 19.1552 16.3602 19.2082C16.2459 19.3269 16.1294 19.4393 16.0174 19.5472C15.3257 20.2141 14.8069 20.7141 16.0461 21.5308C16.6416 21.9232 17.1182 22.2477 17.5936 22.5715C18.1128 22.925 18.6306 23.2777 19.3007 23.7169C19.4714 23.8288 19.6344 23.945 19.7932 24.0582C20.3974 24.489 20.9402 24.876 21.6109 24.8143C22.0006 24.7784 22.4031 24.412 22.6075 23.3191C23.0906 20.7364 24.0403 15.1404 24.2597 12.8345C24.279 12.6324 24.2548 12.3739 24.2353 12.2604C24.2159 12.1469 24.1753 11.9852 24.0278 11.8654C23.8531 11.7237 23.5833 11.6938 23.4627 11.6959C22.9142 11.7056 22.0726 11.9982 18.0227 13.6827Z" fill="#FFF"/>
</svg>
